<svg xmlns="http://www.w3.org/2000/svg" width="115" height="115" viewBox="0 0 3610 3610"><g fill="#8357c9"><path d="M1075 3344c-137-19-191-30-267-55C302 3124-29 2632 4 2093c11-183 45-311 126-479 275-568 971-805 1549-528 127 60 321 199 321 229 0 5-19 28-41 51l-42 42-86-70c-101-82-267-167-386-198-305-78-604-26-862 152-78 54-209 184-262 261-134 196-200 466-172 716 33 305 171 557 403 732 386 290 912 279 1288-26l77-64 44 45 44 45-56 53c-136 128-338 229-541 270-77 16-277 28-333 20zM2995 2742c-215-74-325-259-327-547-1-140 16-216 69-317 68-131 173-219 297-253 98-27 241-18 323 19 157 71 252 256 253 494v72h-801l7 58c30 251 174 384 398 369 98-7 185-35 266-88l60-39v147l-72 37c-40 19-100 43-133 51-84 21-275 20-340-3zm462-711c-24-222-187-344-383-286-111 33-192 117-233 242-38 114-69 103 300 103h322l-6-59z"/><path d="M2000 2185v-555h140v113l1 112 26-50c39-77 80-123 137-155 60-35 115-45 191-35l55 6v157l-32-16c-20-10-58-17-94-17-146 0-244 131-274 367-5 46-10 205-10 355v273h-140v-555zM1053 675c-25-11-33-20-33-40 0-30-2-29 41-8 20 10 57 17 93 18 51 0 61-4 82-28 25-30 31-66 14-97-5-10-48-42-95-70-46-28-93-63-105-77-25-32-27-103-3-139 24-38 84-64 145-64 78 0 98 8 98 37 0 23-2 24-32 16-61-15-126-8-153 17s-33 67-15 101c6 10 46 39 90 65 103 59 130 91 130 153 0 57-26 96-76 117-43 18-140 17-181-1zM1760 675c-18-22-1-50 31-50 20 0 24 5 24 30 0 23-5 31-21 33-11 2-27-4-34-13zM567 538c30-79 73-191 95-250 37-100 42-108 67-108s30 11 119 243c51 133 92 246 92 250 0 5-12 7-27 5-23-3-29-12-52-75l-26-73H623l-28 75c-25 69-29 75-55 75h-28l55-142zm242-75c-6-16-24-64-40-108s-32-87-35-95-25 37-50 104c-24 66-44 121-44 123s40 3 90 3h90l-11-27zM1430 430V180h95c150 0 205 40 205 148 0 34-7 59-22 82-40 58-71 74-154 78l-74 4v94c0 94 0 94-25 94h-25V430zm173 9c84-23 106-154 34-199-12-7-52-15-89-18l-68-5v233h43c23 0 59-5 80-11zM1940 429V179l31 3c29 3 45 21 173 207l141 203 3-206 2-206h50v500l-27-1c-25 0-45-24-173-210l-145-210-3 210-2 211h-50V429zM2480 430V180h125c118 0 125 1 125 20s-7 20-100 20h-100v190h95c88 0 95 1 95 20s-7 20-95 20h-95v190h105c98 0 105 1 105 20s-7 20-130 20h-130V430zM2950 450V220h-70c-63 0-70-2-70-20 0-19 7-20 170-20s170 1 170 20c0 18-7 20-75 20h-75v460h-50V450z"/></g><path d="M1152 2908c-7-7-12-15-12-19 0-6-36-68-153-269-82-140-117-200-177-305-50-88-88-154-238-410-19-33-61-106-92-162-32-56-65-112-74-124-32-47-27-49 137-49h153l230 396c126 218 234 397 239 397s113-179 239-397l230-396h153c164 0 169 2 137 49-9 12-42 68-74 124-31 56-73 129-92 162-150 256-188 322-238 410-60 105-92 161-180 310-123 211-150 258-150 265 0 17-26 30-38 18z" fill="#41b883"/><g fill="#354d5f"><path d="M1975 3032l29-32-44-48-45-47 50 47 50 48-35 32-35 33 30-33zM440 2903l-55-58 58 55c53 50 62 60 54 60-1 0-27-26-57-57zM3128 2763c17-2 47-2 65 0 17 2 3 4-33 4s-50-2-32-4zM2144 2450c0-162 2-229 3-147 2 81 2 213 0 295-1 81-3 14-3-148zM1107 2279c-137-235-407-702-407-706 0-1 66-3 148-3h147l83 145c46 80 85 145 87 145s41-65 87-145l83-145h148c81 0 147 1 147 3 0 6-451 782-460 791-4 4-33-34-63-85zM144 2155c0-49 1-71 3-48s2 64 0 90-3 8-3-42zM2978 2083c89-2 235-2 325 0 89 1 16 3-163 3s-252-2-162-3zM2144 1740c0-63 1-89 3-57 2 31 2 83 0 115-2 31-3 5-3-58zM2553 1705c0-44 2-61 4-37 2 23 2 59 0 80-2 20-4 1-4-43zM1148 1103c18-2 45-2 60 0s0 4-33 4-45-2-27-4zM1484 585c0-55 1-76 3-47s2 74 0 100-3 2-3-53zM1990 470c0-117 3-211 6-208 7 7 5 410-1 417-3 2-5-92-5-209zM2534 545c0-55 1-76 3-47s2 74 0 100-3 2-3-53zM1484 335c0-66 1-92 3-57 2 34 2 88 0 120-2 31-3 3-3-63zM2534 315c0-55 1-76 3-47s2 74 0 100-3 2-3-53z"/></g></svg>